<mxfile host="app.diagrams.net" modified="2023-04-19T16:33:17.881Z" agent="Mozilla/5.0 (Macintosh; Intel Mac OS X 10_15_7) AppleWebKit/537.36 (KHTML, like Gecko) Chrome/112.0.0.0 Safari/537.36" etag="J5PhGVsrtxzAuOrIqEIT" version="21.1.8" type="device">
  <diagram name="第 1 页" id="wvY8QcFbnwItI2pTjA_p">
    <mxGraphModel dx="954" dy="464" grid="1" gridSize="10" guides="1" tooltips="1" connect="1" arrows="1" fold="1" page="1" pageScale="1" pageWidth="3300" pageHeight="4681" math="0" shadow="0">
      <root>
        <mxCell id="0" />
        <mxCell id="1" parent="0" />
        <mxCell id="1frKVTzQMqyhG94xRr_Z-1" value="ECMAScript 规范" style="rounded=0;whiteSpace=wrap;html=1;fillColor=#f8cecc;strokeColor=#b85450;" vertex="1" parent="1">
          <mxGeometry x="370" y="330" width="450" height="60" as="geometry" />
        </mxCell>
        <mxCell id="1frKVTzQMqyhG94xRr_Z-15" value="" style="edgeStyle=orthogonalEdgeStyle;rounded=0;orthogonalLoop=1;jettySize=auto;html=1;" edge="1" parent="1" source="1frKVTzQMqyhG94xRr_Z-2" target="1frKVTzQMqyhG94xRr_Z-1">
          <mxGeometry relative="1" as="geometry" />
        </mxCell>
        <mxCell id="1frKVTzQMqyhG94xRr_Z-16" value="实现" style="edgeLabel;html=1;align=center;verticalAlign=middle;resizable=0;points=[];" vertex="1" connectable="0" parent="1frKVTzQMqyhG94xRr_Z-15">
          <mxGeometry x="0.34" relative="1" as="geometry">
            <mxPoint y="-14" as="offset" />
          </mxGeometry>
        </mxCell>
        <mxCell id="1frKVTzQMqyhG94xRr_Z-2" value="JavaScript 语言" style="rounded=0;whiteSpace=wrap;html=1;fillColor=#dae8fc;strokeColor=#6c8ebf;" vertex="1" parent="1">
          <mxGeometry x="370" y="220" width="450" height="60" as="geometry" />
        </mxCell>
        <mxCell id="1frKVTzQMqyhG94xRr_Z-3" value="Chrom V8 引擎" style="rounded=0;whiteSpace=wrap;html=1;fillColor=#d5e8d4;strokeColor=#82b366;" vertex="1" parent="1">
          <mxGeometry x="370" y="110" width="310" height="60" as="geometry" />
        </mxCell>
        <mxCell id="1frKVTzQMqyhG94xRr_Z-18" value="" style="edgeStyle=orthogonalEdgeStyle;rounded=0;orthogonalLoop=1;jettySize=auto;html=1;entryX=0.867;entryY=-0.075;entryDx=0;entryDy=0;entryPerimeter=0;" edge="1" parent="1" source="1frKVTzQMqyhG94xRr_Z-4" target="1frKVTzQMqyhG94xRr_Z-2">
          <mxGeometry relative="1" as="geometry" />
        </mxCell>
        <mxCell id="1frKVTzQMqyhG94xRr_Z-4" value="QuickJS" style="rounded=0;whiteSpace=wrap;html=1;fillColor=#fff2cc;strokeColor=#d6b656;" vertex="1" parent="1">
          <mxGeometry x="700" y="110" width="120" height="60" as="geometry" />
        </mxCell>
        <mxCell id="1frKVTzQMqyhG94xRr_Z-5" value="Node.js" style="rounded=0;whiteSpace=wrap;html=1;fillColor=#d5e8d4;strokeColor=#82b366;" vertex="1" parent="1">
          <mxGeometry x="370" y="20" width="90" height="60" as="geometry" />
        </mxCell>
        <mxCell id="1frKVTzQMqyhG94xRr_Z-6" value="Deno" style="rounded=0;whiteSpace=wrap;html=1;fillColor=#d5e8d4;strokeColor=#82b366;" vertex="1" parent="1">
          <mxGeometry x="480" y="20" width="90" height="60" as="geometry" />
        </mxCell>
        <mxCell id="1frKVTzQMqyhG94xRr_Z-7" value="Chromium" style="rounded=0;whiteSpace=wrap;html=1;fillColor=#d5e8d4;strokeColor=#82b366;" vertex="1" parent="1">
          <mxGeometry x="590" y="20" width="90" height="60" as="geometry" />
        </mxCell>
        <mxCell id="1frKVTzQMqyhG94xRr_Z-22" value="" style="edgeStyle=orthogonalEdgeStyle;rounded=0;orthogonalLoop=1;jettySize=auto;html=1;" edge="1" parent="1" source="1frKVTzQMqyhG94xRr_Z-9" target="1frKVTzQMqyhG94xRr_Z-4">
          <mxGeometry relative="1" as="geometry" />
        </mxCell>
        <mxCell id="1frKVTzQMqyhG94xRr_Z-9" value="......" style="rounded=0;whiteSpace=wrap;html=1;fillColor=#fff2cc;strokeColor=#d6b656;" vertex="1" parent="1">
          <mxGeometry x="700" y="20" width="120" height="60" as="geometry" />
        </mxCell>
        <mxCell id="1frKVTzQMqyhG94xRr_Z-11" value="脚本语言规范" style="text;html=1;strokeColor=none;fillColor=none;align=center;verticalAlign=middle;whiteSpace=wrap;rounded=0;" vertex="1" parent="1">
          <mxGeometry x="240" y="345" width="100" height="30" as="geometry" />
        </mxCell>
        <mxCell id="1frKVTzQMqyhG94xRr_Z-12" value="语言实现" style="text;html=1;strokeColor=none;fillColor=none;align=center;verticalAlign=middle;whiteSpace=wrap;rounded=0;" vertex="1" parent="1">
          <mxGeometry x="250" y="235" width="100" height="30" as="geometry" />
        </mxCell>
        <mxCell id="1frKVTzQMqyhG94xRr_Z-13" value="执行引擎" style="text;html=1;strokeColor=none;fillColor=none;align=center;verticalAlign=middle;whiteSpace=wrap;rounded=0;" vertex="1" parent="1">
          <mxGeometry x="250" y="125" width="100" height="30" as="geometry" />
        </mxCell>
        <mxCell id="1frKVTzQMqyhG94xRr_Z-14" value="运行时" style="text;html=1;strokeColor=none;fillColor=none;align=center;verticalAlign=middle;whiteSpace=wrap;rounded=0;" vertex="1" parent="1">
          <mxGeometry x="250" y="40" width="100" height="30" as="geometry" />
        </mxCell>
        <mxCell id="1frKVTzQMqyhG94xRr_Z-17" value="解释执行" style="endArrow=classic;html=1;rounded=0;exitX=0.468;exitY=1.058;exitDx=0;exitDy=0;exitPerimeter=0;entryX=0.322;entryY=-0.075;entryDx=0;entryDy=0;entryPerimeter=0;" edge="1" parent="1" source="1frKVTzQMqyhG94xRr_Z-3" target="1frKVTzQMqyhG94xRr_Z-2">
          <mxGeometry width="50" height="50" relative="1" as="geometry">
            <mxPoint x="470" y="280" as="sourcePoint" />
            <mxPoint x="515" y="230" as="targetPoint" />
          </mxGeometry>
        </mxCell>
        <mxCell id="1frKVTzQMqyhG94xRr_Z-19" value="" style="endArrow=classic;html=1;rounded=0;exitX=0.5;exitY=1;exitDx=0;exitDy=0;" edge="1" parent="1" source="1frKVTzQMqyhG94xRr_Z-5">
          <mxGeometry width="50" height="50" relative="1" as="geometry">
            <mxPoint x="360" y="150" as="sourcePoint" />
            <mxPoint x="415" y="110" as="targetPoint" />
          </mxGeometry>
        </mxCell>
        <mxCell id="1frKVTzQMqyhG94xRr_Z-20" value="" style="endArrow=classic;html=1;rounded=0;exitX=0.5;exitY=1;exitDx=0;exitDy=0;entryX=0.5;entryY=0;entryDx=0;entryDy=0;" edge="1" parent="1" source="1frKVTzQMqyhG94xRr_Z-6" target="1frKVTzQMqyhG94xRr_Z-3">
          <mxGeometry width="50" height="50" relative="1" as="geometry">
            <mxPoint x="425" y="90" as="sourcePoint" />
            <mxPoint x="425" y="120" as="targetPoint" />
          </mxGeometry>
        </mxCell>
        <mxCell id="1frKVTzQMqyhG94xRr_Z-21" value="" style="endArrow=classic;html=1;rounded=0;exitX=0.5;exitY=1;exitDx=0;exitDy=0;" edge="1" parent="1" source="1frKVTzQMqyhG94xRr_Z-7">
          <mxGeometry width="50" height="50" relative="1" as="geometry">
            <mxPoint x="435" y="100" as="sourcePoint" />
            <mxPoint x="635" y="110" as="targetPoint" />
          </mxGeometry>
        </mxCell>
        <mxCell id="1frKVTzQMqyhG94xRr_Z-23" value="." style="text;html=1;strokeColor=none;fillColor=none;align=center;verticalAlign=middle;whiteSpace=wrap;rounded=0;" vertex="1" parent="1">
          <mxGeometry x="910" y="410" width="60" height="30" as="geometry" />
        </mxCell>
      </root>
    </mxGraphModel>
  </diagram>
</mxfile>
